<svg width="101" height="101" viewBox="0 0 101 101" fill="none" xmlns="http://www.w3.org/2000/svg">
<circle cx="50.5" cy="50.5" r="50.5" fill="#FFF689"/>
<path d="M21.656 33.3282C21.4509 33.0714 21.3562 32.7437 21.3926 32.4171C21.429 32.0904 21.5936 31.7917 21.8502 31.5863C24.4085 29.7159 27.3117 28.3704 30.3926 27.6275C35.1655 26.4348 42.5493 26.1415 50.6211 31.5227C56.4617 35.4164 62.5678 36.6203 68.7698 35.0997C71.5388 34.4379 74.1526 33.2442 76.466 31.5848C76.7232 31.3794 77.0515 31.2846 77.3786 31.3213C77.7057 31.3579 78.0049 31.523 78.2103 31.7802C78.4157 32.0374 78.5105 32.3657 78.4739 32.6928C78.4372 33.02 78.2721 33.3191 78.0149 33.5245C75.4567 35.395 72.5534 36.7405 69.4726 37.4834C67.5733 37.9587 65.6229 38.1996 63.6651 38.2006C59.5114 38.201 54.5253 37.1091 49.2441 33.5882C43.4034 29.6942 37.2972 28.4903 31.0953 30.0112C28.3264 30.6729 25.7125 31.8667 23.3992 33.5261C23.1416 33.7305 22.8134 33.8245 22.4867 33.7874C22.1599 33.7503 21.8612 33.5851 21.656 33.3282ZM76.4659 48.9619C74.1526 50.6213 71.5388 51.8151 68.7698 52.4768C62.5678 53.9971 56.4617 52.7935 50.621 48.8998C42.5493 43.5189 35.1655 43.8119 30.3925 45.0046C27.3117 45.7475 24.4085 47.093 21.8502 48.9635C21.7229 49.0652 21.6168 49.191 21.538 49.3337C21.4593 49.4764 21.4094 49.6332 21.3913 49.7952C21.3731 49.9571 21.3871 50.1211 21.4323 50.2777C21.4775 50.4343 21.5531 50.5804 21.6548 50.7078C21.7565 50.8352 21.8823 50.9412 22.025 51.02C22.1677 51.0987 22.3246 51.1486 22.4865 51.1668C22.6485 51.1849 22.8125 51.171 22.9691 51.1257C23.1257 51.0805 23.2718 51.0049 23.3992 50.9032C25.7125 49.2438 28.3264 48.0501 31.0953 47.3883C37.2972 45.8671 43.4034 47.0716 49.2441 50.9653C54.5253 54.4862 59.5114 55.5781 63.6651 55.5778C68.8196 55.5575 73.8381 53.9221 78.0149 50.9016C78.2721 50.6962 78.4372 50.3971 78.4738 50.0699C78.5105 49.7428 78.4157 49.4145 78.2103 49.1573C78.0049 48.9001 77.7057 48.735 77.3786 48.6984C77.0514 48.6617 76.7232 48.7565 76.4659 48.9619ZM76.4659 66.339C74.1526 67.9984 71.5388 69.1922 68.7698 69.8539C62.5678 71.3742 56.4617 70.1703 50.621 66.2769C42.5493 60.896 35.1655 61.189 30.3925 62.3817C27.3117 63.1246 24.4085 64.4701 21.8502 66.3406C21.593 66.546 21.4279 66.8451 21.3913 67.1723C21.3546 67.4994 21.4494 67.8277 21.6548 68.0849C21.8602 68.3421 22.1594 68.5072 22.4865 68.5439C22.8137 68.5805 23.1419 68.4857 23.3992 68.2803C25.7125 66.6209 28.3264 65.4272 31.0953 64.7654C37.2972 63.2439 43.4034 64.4487 49.2441 68.3424C54.5253 71.8633 59.5114 72.9552 63.6651 72.9549C68.8196 72.9346 73.8381 71.2992 78.0149 68.2788C78.2721 68.0734 78.4372 67.7742 78.4738 67.4471C78.5105 67.1199 78.4157 66.7916 78.2103 66.5344C78.0049 66.2772 77.7057 66.1121 77.3786 66.0755C77.0514 66.0388 76.7232 66.1336 76.4659 66.339Z" fill="black"/>
</svg>
